HIERARCHY
ROOT Hips
{
	OFFSET 0.000000 0.000000 0.000000 
	CHANNELS 6 Xposition Yposition Zposition Zrotation Yrotation Xrotation
	JOINT LeftUpLeg
	{
		OFFSET 1.363060 -1.794630 0.839290 
		CHANNELS 3 Zrotation Yrotation Xrotation
		JOINT LeftLeg
		{
			OFFSET 2.448110 -6.726130 0.000000 
			CHANNELS 3 Zrotation Yrotation Xrotation
			JOINT LeftFoot
			{
				OFFSET 2.562200 -7.039590 0.000000 
				CHANNELS 3 Zrotation Yrotation Xrotation
				JOINT LeftToeBase
				{
					OFFSET 0.157640 -0.433110 2.322550 
					CHANNELS 3 Zrotation Yrotation Xrotation
					End Site
					{
						OFFSET 0.000000 0.000000 0.000000 
					}
				}
			}
		}
	}
	JOINT RightUpLeg
	{
		OFFSET -1.305520 -1.794630 0.839290 
		CHANNELS 3 Zrotation Yrotation Xrotation
		JOINT RightLeg
		{
			OFFSET -2.542530 -6.985550 0.000000 
			CHANNELS 3 Zrotation Yrotation Xrotation
			JOINT RightFoot
			{
				OFFSET -2.568260 -7.056230 0.000000 
				CHANNELS 3 Zrotation Yrotation Xrotation
				JOINT RightToeBase
				{
					OFFSET -0.164730 -0.452590 2.363150 
					CHANNELS 3 Zrotation Yrotation Xrotation
					End Site
					{
						OFFSET 0.000000 0.000000 0.000000 
					}
				}
			}
		}
	}
	JOINT Spine
	{
		OFFSET 0.028270 2.035590 -0.193380 
		CHANNELS 3 Zrotation Yrotation Xrotation
		JOINT Spine1
		{
			OFFSET 0.056720 2.048850 -0.042750 
			CHANNELS 3 Zrotation Yrotation Xrotation
			JOINT Neck1
			{
				OFFSET -0.054170 1.746240 0.172020 
				CHANNELS 3 Zrotation Yrotation Xrotation
				JOINT Head
				{
					OFFSET 0.104070 1.761360 -0.123970 
					CHANNELS 3 Zrotation Yrotation Xrotation
					End Site
					{
						OFFSET 0.000000 0.000000 0.000000 
					}
				}
			}
			JOINT LeftArm
			{
				OFFSET 3.362410 1.200890 -0.311210 
				CHANNELS 3 Zrotation Yrotation Xrotation
				JOINT LeftForeArm
				{
					OFFSET 4.983000 -0.000000 -0.000000 
					CHANNELS 3 Zrotation Yrotation Xrotation
					JOINT LeftHand
					{
						OFFSET 3.483560 -0.000000 -0.000000 
						CHANNELS 3 Zrotation Yrotation Xrotation
						JOINT LeftHandIndex1
						{
							OFFSET 0.715260 -0.000000 -0.000000 
							CHANNELS 3 Zrotation Yrotation Xrotation
							End Site
							{
								OFFSET 0.000000 0.000000 0.000000 
							}
						}
					}
				}
			}
			JOINT RightArm
			{
				OFFSET -3.136600 1.374050 -0.404650 
				CHANNELS 3 Zrotation Yrotation Xrotation
				JOINT RightForeArm
				{
					OFFSET -5.241900 -0.000000 -0.000000 
					CHANNELS 3 Zrotation Yrotation Xrotation
					JOINT RightHand
					{
						OFFSET -3.444170 -0.000000 -0.000000 
						CHANNELS 3 Zrotation Yrotation Xrotation
						JOINT RightHandIndex1
						{
							OFFSET -0.622530 -0.000000 -0.000000 
							CHANNELS 3 Zrotation Yrotation Xrotation
							End Site
							{
								OFFSET 0.000000 0.000000 0.000000 
							}
						}
					}
				}
			}
		}
	}
}
MOTION
Frames: 15
Frame Time: 0.041667
10.670606 17.976798 27.096169 -177.589041 -3.527541 179.547411 -16.967407 -23.369159 -0.761663 -2.659566 6.994942 20.436828 -3.845747 13.462468 -4.097758 4.729900 -13.073000 -39.642200 29.890176 13.754360 6.233232 3.557448 -3.565420 14.291850 6.392951 -26.538972 -16.159580 -0.013700 -0.755100 2.075300 2.992103 4.430639 3.096090 -6.449581 1.487126 -12.969477 -0.525584 23.068379 4.571746 -2.777200 11.413900 3.269800 -89.104714 7.272245 37.676040 23.826403 -23.247447 -6.198141 1.621466 0.672079 13.433701 -7.125000 0.000000 0.000000 90.569061 -12.267990 41.065027 -22.537534 25.400476 -6.367374 0.833113 -0.405590 13.446295 7.125000 0.000000 0.000000 
10.674319 17.975986 27.101041 -177.749143 -3.709209 179.705262 -17.044146 -23.429880 -0.846243 -2.672995 6.959230 20.325879 -3.724728 13.127869 -3.820832 4.753500 -13.100800 -39.746800 29.707372 13.873084 5.997697 3.545005 -3.644038 14.466713 6.395173 -26.603295 -16.548531 -0.053200 -1.488800 4.094800 2.835266 4.390813 2.849741 -6.347001 1.493695 -12.951011 -0.936657 23.075351 3.671653 -2.995400 11.369000 2.983500 -89.145241 7.303644 37.759850 23.663806 -23.035991 -6.121908 1.586124 0.717698 14.053661 -7.125000 0.000000 0.000000 90.620238 -12.416159 41.401551 -22.535068 25.296921 -6.261540 0.800836 -0.459900 12.533003 7.125000 0.000000 0.000000 
10.677567 17.978191 27.104753 -177.750865 -3.912083 179.833963 -16.976692 -23.524297 -0.954891 -2.684743 6.938735 20.247091 -3.729703 13.135732 -3.732262 4.836600 -13.197400 -40.112100 29.690187 13.925446 5.829131 3.544122 -3.681589 14.530252 6.410520 -26.689180 -16.729145 -0.062100 -1.608500 4.424800 2.902595 4.322824 2.683186 -6.314172 1.466633 -12.921899 -1.318879 23.064062 3.175339 -3.155900 11.334700 2.843200 -89.209154 7.272828 37.705989 23.513513 -22.854306 -6.060831 1.564309 0.750531 14.748407 -7.125000 0.000000 0.000000 90.545877 -12.427655 41.580108 -22.533313 25.262347 -6.230467 0.787412 -0.480259 12.099971 7.125000 0.000000 0.000000 
10.680003 17.981439 27.109045 -177.730396 -4.062877 179.987992 -16.887089 -23.600078 -1.074420 -2.700979 6.914951 20.148994 -3.783165 13.278720 -3.662241 4.910700 -13.282500 -40.435400 29.663310 13.908070 5.571985 3.534249 -3.737959 14.632991 6.402693 -26.686341 -16.821837 -0.065800 -1.655200 4.553700 2.952436 4.266251 2.478203 -6.292805 1.429648 -12.906724 -1.126401 23.078710 3.542956 -3.063700 11.361700 2.950600 -89.227967 7.281057 37.721677 23.701683 -23.076986 -6.138780 1.579343 0.721125 14.048347 -7.125000 0.000000 0.000000 90.494811 -12.421760 41.654033 -22.540647 25.270389 -6.232338 0.787203 -0.480133 11.967096 7.125000 0.000000 0.000000 
10.686151 17.988863 27.118558 -177.788356 -4.381382 -179.703408 -16.789268 -23.730593 -1.368315 -2.710214 6.901086 20.057970 -3.697439 13.038732 -3.374857 4.954900 -13.332800 -40.627500 29.542358 13.889151 5.184468 3.536603 -3.778545 14.670500 6.399679 -26.699937 -16.964275 -0.095800 -1.996300 5.495500 2.805021 4.168073 1.981405 -6.211985 1.380542 -12.883560 -1.087122 23.053499 3.603909 -3.071700 11.357500 2.954400 -89.147580 7.377785 37.805811 23.772791 -23.160174 -6.176757 1.579915 0.717982 13.800676 -7.125000 0.000000 0.000000 90.600804 -12.493988 41.184674 -22.530341 25.282155 -6.252512 0.804837 -0.464754 13.052354 7.125000 0.000000 0.000000 
10.675943 17.985963 27.092921 -177.851148 -3.950446 -179.839467 -16.990961 -23.766851 -1.049104 -2.717895 6.893139 20.072237 -3.779315 13.279094 -3.697352 4.833200 -13.193500 -40.097200 29.468789 13.864969 5.353905 3.516236 -3.773981 14.699518 6.351598 -26.456113 -16.591163 -0.078800 -1.810300 4.981600 2.586236 4.375938 2.350714 -6.290462 1.497090 -12.644894 -1.644495 22.994446 2.760521 -3.329300 11.287300 2.727000 -89.045537 7.366445 37.841508 23.529089 -22.874252 -6.091664 1.561845 0.763331 14.718324 -7.125000 0.000000 0.000000 90.758964 -12.393711 40.305824 -22.852282 25.734035 -6.486730 0.825744 -0.404983 13.505566 7.125000 0.000000 0.000000 
10.673159 17.986891 27.083872 -177.797760 -3.752052 -179.866617 -16.981071 -23.759250 -0.971864 -2.717168 6.894283 20.082706 -3.843329 13.455333 -3.759263 4.832200 -13.192300 -40.092600 29.510340 13.825748 5.393229 3.510258 -3.769283 14.687237 6.343223 -26.383384 -16.344504 -0.051700 -1.467200 4.035200 2.606346 4.479465 2.399101 -6.374797 1.543434 -12.570684 -1.927465 22.966619 2.274258 -3.462500 11.249400 2.584800 -89.021076 7.406293 37.867269 23.384729 -22.703684 -6.038498 1.545439 0.790744 15.343502 -7.125000 0.000000 0.000000 90.804377 -12.331688 39.924187 -23.193067 26.181107 -6.700663 0.815617 -0.372483 13.002702 7.125000 0.000000 0.000000 
10.673275 17.990139 27.080508 -177.733118 -3.722021 -179.809407 -16.908859 -23.739536 -1.030638 -2.713656 6.899905 20.102186 -3.798298 13.325394 -3.785458 4.800400 -13.155400 -39.952900 29.547093 13.804738 5.346742 3.514791 -3.767796 14.679340 6.289790 -26.252020 -16.456958 -0.054300 -1.504300 4.137600 2.759045 4.496253 2.286954 -6.401199 1.540825 -12.562280 -1.553780 22.988710 2.622293 -3.309400 11.277700 2.660000 -89.058397 7.447254 38.038231 23.460932 -22.781490 -6.059539 1.540454 0.785744 15.085483 -7.125000 0.000000 0.000000 90.771663 -12.352351 39.910448 -23.330828 26.356510 -6.784698 0.807922 -0.362351 12.507801 7.125000 0.000000 0.000000 
10.672811 17.989675 27.076100 -177.704776 -3.728242 -179.841994 -16.899295 -23.751441 -1.006353 -2.711220 6.912279 20.147466 -3.783440 13.286509 -3.989796 4.699200 -13.036800 -39.506400 29.573723 13.776426 5.388547 3.516226 -3.760952 14.679957 6.250335 -26.158195 -16.565711 -0.069000 -1.694900 4.663300 2.850754 4.468040 2.372608 -6.389846 1.520066 -12.575227 -0.908170 22.992772 3.453173 -3.024000 11.322500 2.888400 -89.096575 7.409480 38.266462 23.754439 -23.113144 -6.160321 1.555118 0.740322 14.033942 -7.125000 0.000000 0.000000 90.729415 -12.360490 39.979859 -23.349556 26.394562 -6.808667 0.804601 -0.361184 12.516218 7.125000 0.000000 0.000000 
10.673391 17.986659 27.074824 -177.682170 -3.710627 -179.922569 -16.856503 -23.515643 -1.083003 -2.701784 6.930285 20.205740 -3.768028 13.242950 -4.028560 4.737700 -13.082200 -39.677000 29.618275 13.742209 5.470269 3.514528 -3.750614 14.669061 6.260015 -26.175039 -16.486411 -0.070700 -1.715800 4.720800 2.861436 4.477291 2.487464 -6.410773 1.521826 -12.608807 -0.831472 22.940956 3.622989 -2.987300 11.305600 2.941200 -89.087816 7.395853 38.282765 23.688175 -23.044056 -6.142154 1.546219 0.756914 14.320730 -7.125000 0.000000 0.000000 90.716152 -12.359353 40.181530 -23.336046 26.394997 -6.818305 0.802344 -0.354588 12.092694 7.125000 0.000000 0.000000 
10.675015 17.984455 27.076448 -177.664284 -3.727147 -179.956063 -16.784565 -23.271765 -1.214988 -2.689282 6.944212 20.249454 -3.701009 13.052111 -3.897067 4.729200 -13.072200 -39.639500 29.669265 13.749607 5.507913 3.517504 -3.745909 14.662459 6.268436 -26.218443 -16.536024 -0.073600 -1.749600 4.814200 2.789752 4.509311 2.501220 -6.451976 1.540592 -12.614271 -1.405701 22.893326 2.897757 -3.244800 11.244300 2.742800 -89.020375 7.388767 38.460591 23.690071 -23.042061 -6.138885 1.538656 0.761094 14.304083 -7.125000 0.000000 0.000000 90.763019 -12.311407 40.265006 -23.299052 26.329938 -6.777253 0.805744 -0.354189 11.751366 7.125000 0.000000 0.000000 
10.676755 17.984455 27.076216 -177.637321 -3.761942 -179.938558 -16.774877 -23.497790 -1.137289 -2.690126 6.946798 20.250204 -3.758505 13.210009 -3.957744 4.655800 -12.985400 -39.313700 29.726155 13.828413 5.510959 3.523462 -3.746242 14.651843 6.300678 -26.336188 -16.591730 -0.069300 -1.698500 4.673300 2.744697 4.505206 2.514036 -6.471299 1.539844 -12.567580 -1.772799 22.879064 2.468048 -3.402800 11.215800 2.635200 -88.969877 7.395999 38.517615 23.601964 -22.942523 -6.114203 1.522136 0.787260 14.739080 -7.125000 0.000000 0.000000 90.812886 -12.233184 40.145778 -23.242617 26.289581 -6.777684 0.806589 -0.347384 11.869779 7.125000 0.000000 0.000000 
10.678263 17.984455 27.073200 -177.601631 -3.743143 -179.895719 -16.766048 -23.745249 -1.052814 -2.694335 6.947258 20.238928 -3.863686 13.500437 -4.053011 4.713400 -13.053600 -39.569600 29.767265 13.857548 5.491121 3.527227 -3.735999 14.601377 6.349965 -26.446358 -16.377545 -0.050900 -1.456400 4.005600 2.774137 4.516326 2.547538 -6.478831 1.543309 -12.495780 -1.861623 22.849089 2.475730 -3.423900 11.199600 2.653800 -88.937825 7.307650 38.693400 23.773764 -23.135503 -6.173619 1.534038 0.758255 14.064370 -7.125000 0.000000 0.000000 90.806895 -12.192414 40.088948 -23.251038 26.286782 -6.770289 0.807100 -0.351616 11.999769 7.125000 0.000000 0.000000 
10.680815 17.982715 27.069719 -177.582306 -3.674973 -179.922240 -16.765620 -23.758713 -1.006572 -2.691551 6.948834 20.238852 -3.942133 13.715124 -3.976482 4.851500 -13.214600 -40.177100 29.800257 13.849252 5.567761 3.533104 -3.706795 14.532581 6.352435 -26.430004 -16.245970 -0.048200 -1.416100 3.894600 2.832560 4.542088 2.630406 -6.477858 1.558256 -12.473752 -1.920723 22.827883 2.462339 -3.436500 11.186800 2.656500 -88.933063 7.196858 38.664383 23.784941 -23.141873 -6.163227 1.544460 0.741455 13.926128 -7.125000 0.000000 0.000000 90.766413 -12.147875 40.053358 -23.263397 26.299474 -6.775123 0.806799 -0.356036 12.287220 7.125000 0.000000 0.000000 
10.682555 17.982715 27.065659 -177.617659 -3.654519 -179.996610 -16.837793 -23.733895 -0.917817 -2.689847 6.943633 20.233668 -3.955999 13.755425 -3.882235 4.959200 -13.337700 -40.646100 29.782719 13.837819 5.677815 3.535996 -3.688636 14.515184 6.338931 -26.403863 -16.340460 -0.055700 -1.523000 4.189100 2.887663 4.511501 2.769767 -6.439062 1.548858 -12.495250 -1.587252 22.842501 2.888245 -3.282600 11.214100 2.770800 -89.026832 7.144661 38.429810 23.722724 -23.069644 -6.131665 1.552489 0.737677 14.123306 -7.125000 0.000000 0.000000 90.694255 -12.112181 40.101165 -23.270346 26.320078 -6.789001 0.806081 -0.357637 12.489223 7.125000 0.000000 0.000000 
